<?xml version="1.0" encoding="UTF-8"?>
<svg version="1.1" xmlns="http://www.w3.org/2000/svg" width="45" height="48">
<path d="M0 0 C1.14162521 -0.00384115 2.28325042 -0.00768229 3.45947033 -0.01163983 C4.70906078 -0.01077335 5.95865123 -0.00990687 7.24610806 -0.00901413 C8.5906816 -0.01159892 9.93525438 -0.0146124 11.2798261 -0.01801753 C14.9736805 -0.02607764 18.66751545 -0.02787655 22.3613776 -0.028615 C26.34588349 -0.03046731 30.33037934 -0.03801563 34.31487942 -0.04475021 C43.02791972 -0.05832781 51.74095541 -0.06435758 60.45400453 -0.06876087 C65.89668421 -0.0715247 71.33936211 -0.07576235 76.7820406 -0.08026505 C91.8569687 -0.09245778 106.93189538 -0.10275656 122.00682831 -0.10614014 C123.4539001 -0.10646949 123.4539001 -0.10646949 124.93020567 -0.10680549 C125.89720765 -0.10702377 126.86420963 -0.10724204 127.8605147 -0.10746694 C129.81997335 -0.1079104 131.779432 -0.10835696 133.73889065 -0.10880661 C134.71084645 -0.10902804 135.68280224 -0.10924947 136.68421125 -0.10947761 C152.42503319 -0.11342362 168.16580878 -0.1308716 183.90661282 -0.15416613 C200.07504833 -0.17789992 216.2434606 -0.19034294 232.41191381 -0.19150805 C241.48676797 -0.19242376 250.56156177 -0.19814966 259.63639927 -0.21632767 C267.36577889 -0.23175613 275.0950795 -0.236833 282.8244716 -0.22858956 C286.76519606 -0.22469255 290.70576153 -0.225566 294.64646626 -0.23964691 C298.26086319 -0.25244321 301.87498259 -0.25113859 305.48937946 -0.2390562 C307.40197305 -0.23619339 309.31457169 -0.24799153 311.22712666 -0.26047826 C327.2574016 -0.1694024 339.52658988 4.41350303 351.24890041 15.50642776 C362.37019135 27.46283395 365.92649548 41.54508719 365.85729885 57.61261368 C365.86762237 58.893705 365.87794588 60.17479632 365.88858223 61.4947086 C365.91629965 65.00694087 365.91978879 68.51882029 365.91884208 72.03114593 C365.92215642 75.83550616 365.94840191 79.63972243 365.97157192 83.44400406 C366.013168 90.87736863 366.03355264 98.3106431 366.04611176 105.74410772 C366.05670263 111.78541603 366.0750482 117.82665528 366.09884548 123.86792564 C366.10223378 124.72992043 366.10562207 125.59191522 366.10911304 126.48003106 C366.11602965 128.23143353 366.1229635 129.98283594 366.1299144 131.73423827 C366.19404643 148.12339031 366.23396081 164.5125324 366.26551831 180.90177507 C366.29315664 194.95849406 366.34179322 209.01501381 366.40563869 223.07161331 C366.47986486 239.41568435 366.5410183 255.75971863 366.58140278 272.10391098 C366.58574504 273.84648745 366.59010454 275.58906387 366.59448147 277.33164024 C366.59662848 278.18892783 366.59877548 279.04621543 366.60098755 279.92948143 C366.61700865 285.96573221 366.64237912 292.00190213 366.67138577 298.0381031 C366.70646883 305.39044136 366.7272246 312.74265341 366.7296285 320.09507775 C366.73121527 323.84494011 366.73921406 327.59449364 366.76467991 331.34427643 C366.79207017 335.40940634 366.78827276 339.47391118 366.78137112 343.53912735 C366.79418495 344.72316365 366.80699879 345.90719995 366.82020092 347.12711614 C366.77787122 353.78110861 366.22413787 357.7104489 362.31140041 363.13142776 C361.64369908 364.13203704 360.97599775 365.13264631 360.28806305 366.16357708 C343.70385248 389.4982438 325.8613596 411.64530523 306.87390041 433.06892776 C306.14872518 433.89030637 305.42354995 434.71168497 304.67639971 435.55795383 C266.80393828 478.30550532 229.88681528 507.12205533 171.35977268 511.02564812 C147.82738145 512.36207044 124.40957723 512.05565919 100.87390041 511.00642776 C99.57629488 510.95063978 98.27868936 510.89485179 96.94176245 510.83737326 C69.38464913 509.63475586 41.90855939 507.69993824 14.48937893 504.67781448 C13.53231552 504.57324649 12.57525212 504.46867849 11.58918679 504.36094177 C-14.94879311 501.40906037 -14.94879311 501.40906037 -24.12609959 495.69392776 C-25.07356052 495.11771683 -26.02102146 494.54150589 -26.99719334 493.94783401 C-39.20752781 485.70718738 -46.12587791 474.29348136 -49.68859959 460.13142776 C-49.86370546 457.68422664 -49.94312655 455.22900811 -49.94586849 452.7755518 C-49.94937457 452.06532984 -49.95288064 451.35510789 -49.95649296 450.62336406 C-49.9657787 448.24933016 -49.96089101 445.87554309 -49.95602512 443.50149918 C-49.95976282 441.77984152 -49.96436481 440.05818557 -49.96975577 438.33653229 C-49.98198659 433.60963777 -49.9817252 428.88281401 -49.97936702 424.15590727 C-49.97895887 419.05621922 -49.98999786 413.95655385 -49.99948215 408.85687637 C-50.0160939 398.86679772 -50.02159179 388.87674268 -50.02270691 378.88665137 C-50.02365736 370.76525433 -50.02776751 362.64386506 -50.03410816 354.52247047 C-50.05172153 331.49352465 -50.06094695 308.46459746 -50.05944721 285.43564484 C-50.0593673 284.1941912 -50.05928739 282.95273755 -50.05920506 281.67366409 C-50.05912329 280.43069335 -50.05904153 279.18772262 -50.05895729 277.9070861 C-50.05814451 257.76590932 -50.07728012 237.62480735 -50.10548179 217.48365221 C-50.13421488 196.79962034 -50.14802183 176.11562495 -50.14629424 155.43157262 C-50.14563045 143.82039207 -50.15111763 132.20928993 -50.17265034 120.59812737 C-50.19086775 110.71134316 -50.19520486 100.82467291 -50.18163149 90.93787918 C-50.17510455 85.89537563 -50.17497484 80.85309063 -50.19233799 75.81060791 C-50.20808582 71.18961959 -50.20518755 66.56902283 -50.18776973 61.94804396 C-50.18470359 60.28115799 -50.18831758 58.61424266 -50.19948988 56.94739131 C-50.30291871 40.41420649 -46.3255166 26.4224728 -34.68859959 14.13142776 C-24.52001183 5.79696194 -13.36201839 0.01691031 0 0 Z M-14.08396494 40.93180567 C-17.31924348 46.27579949 -17.8136586 50.71044972 -17.81723404 56.84822083 C-17.81898708 57.5257889 -17.82074011 58.20335698 -17.82254627 58.90145743 C-17.82721526 61.18237845 -17.82473846 63.46323598 -17.82231236 65.7441597 C-17.82417988 67.39183105 -17.82648035 69.03950197 -17.82917768 70.68717217 C-17.83530942 75.22332443 -17.83516047 79.7594583 -17.8339833 84.29561377 C-17.83377964 89.18463394 -17.83929478 94.07364815 -17.84404087 98.96266556 C-17.85235573 108.54473677 -17.8550961 118.12680183 -17.85565325 127.70887634 C-17.85612805 135.49666222 -17.85818103 143.28444606 -17.86135387 151.07223129 C-17.87016306 173.14308579 -17.87477289 195.21393541 -17.8740234 217.28479168 C-17.87398344 218.47522651 -17.87394349 219.66566134 -17.87390232 220.89216995 C-17.87386144 222.08405537 -17.87382056 223.27594079 -17.87377844 224.50394395 C-17.87337199 243.82027456 -17.88294059 263.13658567 -17.89704069 282.45291063 C-17.91139817 302.27801484 -17.9183112 322.10310954 -17.91744691 341.92821908 C-17.9171147 353.06198083 -17.91987214 364.19572215 -17.93062496 375.32947922 C-17.93972175 384.80945723 -17.94191201 394.28940554 -17.93511554 403.76938602 C-17.93184606 408.6067622 -17.93180906 413.44408139 -17.94046879 418.28145218 C-17.94831588 422.71042499 -17.94692068 427.13929545 -17.93818466 431.56826571 C-17.93664571 433.16989341 -17.93848067 434.77152868 -17.94404473 436.37314746 C-18.21114362 451.99642712 -18.21114362 451.99642712 -10.68859959 465.13142776 C-5.31900427 468.78549628 -0.43940893 469.70993734 5.94213772 469.61244583 C6.77385069 469.61586353 7.60556367 469.61928123 8.46248007 469.6228025 C11.22953614 469.62935369 13.99560667 469.6074516 16.76257229 469.58552933 C18.75387455 469.58440025 20.74517847 469.58503589 22.73647976 469.58729935 C28.12854277 469.58844506 33.52024847 469.56495854 38.91222858 469.53700352 C44.55230673 469.51196629 50.19239343 469.50964602 55.83251858 469.50490189 C66.50670353 469.49247896 77.18072425 469.45966648 87.85483694 469.41950393 C100.00954432 469.37476505 112.16425961 469.35279383 124.31902885 469.33272219 C149.31657703 469.29093335 174.31397951 469.22059446 199.31140041 469.13142776 C199.31726665 468.07035309 199.3231329 467.00927841 199.3291769 465.91604996 C199.38663175 455.86882785 199.45951035 445.82181746 199.54711533 435.77481174 C199.59165793 430.61074094 199.63094873 425.44674611 199.65783596 420.28255081 C199.68403069 415.28976303 199.72454497 410.29727019 199.77458668 405.30466652 C199.79114682 403.40913654 199.80272812 401.51355568 199.80901432 399.61796379 C199.87074798 382.69844456 200.85036042 366.42057799 213.17468166 353.50642776 C214.52378852 352.17185637 214.52378852 352.17185637 214.31140041 350.13142776 C215.16024807 349.74084183 215.16024807 349.74084183 216.02624416 349.34236526 C218.51871905 348.02156661 220.62291392 346.45486568 222.87390041 344.75642776 C232.12534061 338.18735781 241.7716298 336.00608906 252.95715237 335.9261055 C253.81619671 335.9162059 254.67524105 335.9063063 255.56031704 335.89610672 C258.39007754 335.86460564 261.21985481 335.83977945 264.04968166 335.81502151 C266.01552159 335.79444215 267.98135718 335.77344542 269.94718838 335.75204849 C275.11414994 335.69692934 280.28115076 335.64747535 285.4481802 335.5992012 C290.72358591 335.54891193 295.99893479 335.49326466 301.27429104 335.43806839 C311.61994559 335.33061108 321.96564954 335.22913862 332.31140041 335.13142776 C332.38005047 298.54407376 332.43292103 261.95673104 332.4645964 225.3693259 C332.46834857 221.05093136 332.47223153 216.73253695 332.47619534 212.41414261 C332.47698227 211.55441942 332.4777692 210.69469623 332.47857998 209.80892082 C332.49163782 195.88405651 332.51529375 181.95922932 332.5428588 168.03438704 C332.57090245 153.74874361 332.58757447 139.46311964 332.5936659 125.17744982 C332.5977845 116.36073402 332.61079795 107.54412312 332.63514981 98.7274396 C332.65099416 92.6834601 332.65580373 86.63953492 332.65190455 80.59553616 C332.64998096 77.10721187 332.6529526 73.61907103 332.66901684 70.13077927 C332.68389595 66.34922158 332.68037026 62.56811631 332.67216396 58.78654861 C332.68090249 57.68343255 332.68964101 56.58031649 332.69864434 55.44377267 C332.65950668 48.79214224 332.08342247 44.11023373 327.37390041 39.04939651 C326.69327541 38.47834183 326.01265041 37.90728714 325.31140041 37.31892776 C324.63077541 36.73498245 323.95015041 36.15103714 323.24890041 35.54939651 C319.87547752 33.08054065 316.9852404 33.00357803 312.9386034 32.99162006 C311.81652717 32.98592882 310.69445094 32.98023758 309.5383724 32.97437388 C308.30036465 32.973194 307.0623569 32.97201412 305.78683376 32.97079849 C304.47571672 32.96571067 303.16459968 32.96062285 301.81375182 32.95538086 C298.16660191 32.94146449 294.51946199 32.93388827 290.87229228 32.92740786 C287.74591524 32.92103928 284.61955463 32.91096883 281.49318783 32.9008472 C271.19210618 32.86751392 260.89101453 32.846 250.58989662 32.82764736 C247.90773058 32.82285259 245.22556495 32.81786924 242.54339933 32.81284213 C225.88912626 32.7818711 209.23484972 32.75518441 192.58055592 32.73842335 C188.72244542 32.73447382 184.864335 32.73047083 181.00622463 32.72639847 C180.04730397 32.72539011 179.08838332 32.72438175 178.10040446 32.72334283 C162.56753315 32.70633704 147.03482119 32.66522923 131.50202768 32.61437548 C115.55628473 32.56259905 99.61062373 32.53348105 83.66479743 32.52622646 C74.71120433 32.52156423 65.75787217 32.50681329 56.8043623 32.46648216 C49.17872992 32.43217427 41.55340557 32.41824585 33.92770045 32.4309063 C30.03780294 32.43673151 26.1485568 32.43288014 22.25875759 32.40273666 C18.6941292 32.37533889 15.13061377 32.37589758 11.56596024 32.39824712 C9.67288036 32.40298385 7.77979667 32.37823784 5.88688886 32.35227782 C-2.37183394 32.44347249 -8.83086576 34.15396526 -14.08396494 40.93180567 Z M236.43640041 375.06892776 C233.09870703 379.87913293 232.06014404 383.45301346 232.08434963 389.29866409 C232.08450069 390.51955231 232.08465176 391.74044052 232.0848074 392.99832535 C232.09512997 394.30681946 232.10545254 395.61531357 232.11608791 396.96345901 C232.1198212 398.32394579 232.12266668 399.68443526 232.12466335 401.04492569 C232.13227504 404.61403794 232.15190207 408.18298568 232.17407131 411.75203323 C232.19458307 415.39865774 232.20367643 419.04530899 232.21374416 422.69197464 C232.23515051 429.83852604 232.26925644 436.98496612 232.31140041 444.13142776 C237.24487625 439.99247574 241.89534988 435.69170999 246.44006252 431.13216019 C247.11408108 430.45989395 247.78809963 429.78762772 248.48254299 429.09498978 C250.687115 426.89478348 252.88805152 424.69098251 255.08874416 422.48689651 C256.62559044 420.95072432 258.1625851 419.41470056 259.69972134 417.87881851 C262.90792731 414.67208194 266.11432941 411.46355549 269.31945705 408.25374222 C273.43773101 404.12974248 277.56051678 400.01028692 281.68463707 395.89213467 C284.85271855 392.72765468 288.01842937 389.5608118 291.1834116 386.39323235 C292.70380622 384.8721688 294.22494908 383.3518528 295.74683857 381.83228493 C297.86314692 379.71849945 299.97625174 377.6015642 302.08850002 375.48372269 C302.72270367 374.85154327 303.35690731 374.21936386 304.01032925 373.5680275 C306.93133122 371.22140194 306.93133122 371.22140194 308.31140041 368.13142776 C300.49624854 368.03843041 292.68122818 367.96751303 284.86566067 367.92417908 C281.2358831 367.90337261 277.60648626 367.87518423 273.97692776 367.82966995 C270.46908779 367.78596117 266.96161221 367.76223855 263.45352077 367.75191879 C261.47495398 367.74101523 259.4965322 367.70982942 257.51818752 367.67824173 C248.97326147 367.67612679 242.41629287 368.38355139 236.43640041 375.06892776 Z " fill="#E7DFDF" transform="translate(97.68859958648682,4.868572235107422)"/>
<path d="M0 0 C77.55 0 155.1 0 235 0 C235 10.89 235 21.78 235 33 C157.45 33 79.9 33 0 33 C0 22.11 0 11.22 0 0 Z " fill="#E8DEDE" transform="translate(138,244)"/>
<path d="M0 0 C77.55 0 155.1 0 235 0 C235 10.89 235 21.78 235 33 C157.45 33 79.9 33 0 33 C0 22.11 0 11.22 0 0 Z " fill="#E8DEDE" transform="translate(138,171)"/>
<path d="M0 0 C77.55 0 155.1 0 235 0 C235 10.89 235 21.78 235 33 C157.45 33 79.9 33 0 33 C0 22.11 0 11.22 0 0 Z " fill="#E8DFDF" transform="translate(138,98)"/>
<path d="M0 0 C33.33 0 66.66 0 101 0 C101 10.89 101 21.78 101 33 C67.67 33 34.34 33 0 33 C0 22.11 0 11.22 0 0 Z " fill="#E7DEDE" transform="translate(138,316)"/>
</svg>
